<svg width="159" height="36" viewBox="0 0 159 36" fill="none" xmlns="http://www.w3.org/2000/svg">
<path d="M7.456 22.776H14.624V27H1.984V4.536H7.456V22.776ZM25.362 27.256C23.6127 27.256 22.034 26.8827 20.626 26.136C19.2393 25.3893 18.1407 24.3227 17.33 22.936C16.5407 21.5493 16.146 19.928 16.146 18.072C16.146 16.2373 16.5513 14.6267 17.362 13.24C18.1727 11.832 19.282 10.7547 20.69 10.008C22.098 9.26133 23.6767 8.888 25.426 8.888C27.1753 8.888 28.754 9.26133 30.162 10.008C31.57 10.7547 32.6793 11.832 33.49 13.24C34.3007 14.6267 34.706 16.2373 34.706 18.072C34.706 19.9067 34.29 21.528 33.458 22.936C32.6473 24.3227 31.5273 25.3893 30.098 26.136C28.69 26.8827 27.1113 27.256 25.362 27.256ZM25.362 22.52C26.4073 22.52 27.2927 22.136 28.018 21.368C28.7647 20.6 29.138 19.5013 29.138 18.072C29.138 16.6427 28.7753 15.544 28.05 14.776C27.346 14.008 26.4713 13.624 25.426 13.624C24.3593 13.624 23.474 14.008 22.77 14.776C22.066 15.5227 21.714 16.6213 21.714 18.072C21.714 19.5013 22.0553 20.6 22.738 21.368C23.442 22.136 24.3167 22.52 25.362 22.52ZM44.393 8.888C45.6517 8.888 46.7503 9.144 47.689 9.656C48.649 10.168 49.385 10.84 49.897 11.672V9.144H55.369V26.968C55.369 28.6107 55.0383 30.0933 54.377 31.416C53.737 32.76 52.745 33.8267 51.401 34.616C50.0783 35.4053 48.425 35.8 46.441 35.8C43.7957 35.8 41.6517 35.1707 40.009 33.912C38.3663 32.6747 37.4277 30.9893 37.193 28.856H42.601C42.7717 29.5387 43.177 30.072 43.817 30.456C44.457 30.8613 45.2463 31.064 46.185 31.064C47.3157 31.064 48.2117 30.7333 48.873 30.072C49.5557 29.432 49.897 28.3973 49.897 26.968V24.44C49.3637 25.272 48.6277 25.9547 47.689 26.488C46.7503 27 45.6517 27.256 44.393 27.256C42.921 27.256 41.5877 26.8827 40.393 26.136C39.1983 25.368 38.249 24.2907 37.545 22.904C36.8623 21.496 36.521 19.8747 36.521 18.04C36.521 16.2053 36.8623 14.5947 37.545 13.208C38.249 11.8213 39.1983 10.7547 40.393 10.008C41.5877 9.26133 42.921 8.888 44.393 8.888ZM49.897 18.072C49.897 16.7067 49.513 15.6293 48.745 14.84C47.9983 14.0507 47.081 13.656 45.993 13.656C44.905 13.656 43.977 14.0507 43.209 14.84C42.4623 15.608 42.089 16.6747 42.089 18.04C42.089 19.4053 42.4623 20.4933 43.209 21.304C43.977 22.0933 44.905 22.488 45.993 22.488C47.081 22.488 47.9983 22.0933 48.745 21.304C49.513 20.5147 49.897 19.4373 49.897 18.072ZM67.4558 27.256C65.7064 27.256 64.1278 26.8827 62.7198 26.136C61.3331 25.3893 60.2344 24.3227 59.4238 22.936C58.6344 21.5493 58.2398 19.928 58.2398 18.072C58.2398 16.2373 58.6451 14.6267 59.4557 13.24C60.2664 11.832 61.3758 10.7547 62.7838 10.008C64.1918 9.26133 65.7704 8.888 67.5198 8.888C69.2691 8.888 70.8478 9.26133 72.2558 10.008C73.6638 10.7547 74.7731 11.832 75.5838 13.24C76.3944 14.6267 76.7998 16.2373 76.7998 18.072C76.7998 19.9067 76.3838 21.528 75.5518 22.936C74.7411 24.3227 73.6211 25.3893 72.1918 26.136C70.7838 26.8827 69.2051 27.256 67.4558 27.256ZM67.4558 22.52C68.5011 22.52 69.3864 22.136 70.1118 21.368C70.8584 20.6 71.2318 19.5013 71.2318 18.072C71.2318 16.6427 70.8691 15.544 70.1438 14.776C69.4398 14.008 68.5651 13.624 67.5198 13.624C66.4531 13.624 65.5678 14.008 64.8638 14.776C64.1598 15.5227 63.8078 16.6213 63.8078 18.072C63.8078 19.5013 64.1491 20.6 64.8318 21.368C65.5358 22.136 66.4104 22.52 67.4558 22.52ZM89.6548 22.36V27H86.8708C84.8868 27 83.3401 26.52 82.2308 25.56C81.1214 24.5787 80.5668 22.9893 80.5668 20.792V13.688H78.3908V9.144H80.5668V4.792H86.0388V9.144H89.6228V13.688H86.0388V20.856C86.0388 21.3893 86.1668 21.7733 86.4228 22.008C86.6788 22.2427 87.1054 22.36 87.7028 22.36H89.6548ZM110.943 9.144L99.7428 35.48H93.8548L97.9508 26.392L90.6867 9.144H96.7988L100.927 20.312L105.023 9.144H110.943ZM118.394 11.672C118.927 10.84 119.663 10.168 120.602 9.656C121.54 9.144 122.639 8.888 123.898 8.888C125.37 8.888 126.703 9.26133 127.898 10.008C129.092 10.7547 130.031 11.8213 130.714 13.208C131.418 14.5947 131.77 16.2053 131.77 18.04C131.77 19.8747 131.418 21.496 130.714 22.904C130.031 24.2907 129.092 25.368 127.898 26.136C126.703 26.8827 125.37 27.256 123.898 27.256C122.66 27.256 121.562 27 120.602 26.488C119.663 25.976 118.927 25.3147 118.394 24.504V35.512H112.922V9.144H118.394V11.672ZM126.202 18.04C126.202 16.6747 125.818 15.608 125.05 14.84C124.303 14.0507 123.375 13.656 122.266 13.656C121.178 13.656 120.25 14.0507 119.482 14.84C118.735 15.6293 118.362 16.7067 118.362 18.072C118.362 19.4373 118.735 20.5147 119.482 21.304C120.25 22.0933 121.178 22.488 122.266 22.488C123.354 22.488 124.282 22.0933 125.05 21.304C125.818 20.4933 126.202 19.4053 126.202 18.04ZM151.472 17.784C151.472 18.296 151.44 18.8293 151.376 19.384H138.992C139.078 20.4933 139.43 21.3467 140.048 21.944C140.688 22.52 141.467 22.808 142.384 22.808C143.75 22.808 144.699 22.232 145.232 21.08H151.056C150.758 22.2533 150.214 23.3093 149.424 24.248C148.656 25.1867 147.686 25.9227 146.512 26.456C145.339 26.9893 144.027 27.256 142.576 27.256C140.827 27.256 139.27 26.8827 137.904 26.136C136.539 25.3893 135.472 24.3227 134.704 22.936C133.936 21.5493 133.552 19.928 133.552 18.072C133.552 16.216 133.926 14.5947 134.672 13.208C135.44 11.8213 136.507 10.7547 137.872 10.008C139.238 9.26133 140.806 8.888 142.576 8.888C144.304 8.888 145.84 9.25067 147.184 9.976C148.528 10.7013 149.574 11.736 150.32 13.08C151.088 14.424 151.472 15.992 151.472 17.784ZM145.872 16.344C145.872 15.4053 145.552 14.6587 144.912 14.104C144.272 13.5493 143.472 13.272 142.512 13.272C141.595 13.272 140.816 13.5387 140.176 14.072C139.558 14.6053 139.174 15.3627 139.024 16.344H145.872Z" fill="black"/>
<circle cx="155" cy="31" r="4" fill="#FDA300"/>
</svg>
